# xmcd
#
# Track frame offsets: 
#        150
#        18474
#        37065
#        51734
#        82166
#        104334
#        125878
#        146249
#        161077
#        181315
#        192627
#        210759
#        237594
#
# Disc length: 3558 seconds
#
# Revision: 0
# Processed by: cddbd v1.5.2PL0 Copyright (c) Steve Scherf et al.
# Submitted via: ExactAudioCopy v0.95b4
#
DISCID=cd0de40d
DTITLE=Various Artist - Where Blues Crosses Over: 12 Years of Ruf Records Ant
DTITLE=hology
DYEAR=2006
DGENRE=Blues
TTITLE0=Workin' Overtime - Walter Trout
TTITLE1=New Used Car - Sue Foley
TTITLE2=White Trash Girl - Candye Kane
TTITLE3=It Hurts A Man - Ian Parker
TTITLE4=White Crosses - Omar and The Howlers
TTITLE5=Where The Blues Turn Black - Larry Garner
TTITLE6=Love Fever - Ana Popovic
TTITLE7=Whispering Desert - Kevin Coyne
TTITLE8=In The Beginning - Aynsley Lister
TTITLE9=See These Tears - Canned Heat
TTITLE10=Home - Friend'n Fellow
TTITLE11=Live Together - Bernard Allison
TTITLE12=Put Your Money Where Your Mouth Is - Luther Allison
EXTD=
EXTT0=
EXTT1=
EXTT2=
EXTT3=
EXTT4=
EXTT5=
EXTT6=
EXTT7=
EXTT8=
EXTT9=
EXTT10=
EXTT11=
EXTT12=
PLAYORDER=
